<svg width="24" height="25" viewBox="0 0 24 25" fill="none" xmlns="http://www.w3.org/2000/svg">
<mask id="mask0_3864_1451" style="mask-type:alpha" maskUnits="userSpaceOnUse" x="0" y="0" width="24" height="25">
<path fill-rule="evenodd" clip-rule="evenodd" d="M7.21971 6.8584C6.35571 6.8584 5.54571 7.1924 4.93971 7.7994C3.68171 9.0594 3.68171 11.1104 4.94071 12.3724L11.9997 19.4434L19.0597 12.3724C20.3187 11.1104 20.3187 9.0594 19.0597 7.7994C17.8477 6.5844 15.7117 6.5864 14.4997 7.7994L12.7077 9.5944C12.3317 9.9714 11.6677 9.9714 11.2917 9.5944L9.49971 7.7984C8.89371 7.1924 8.08471 6.8584 7.21971 6.8584ZM11.9997 21.8584C11.7347 21.8584 11.4797 21.7534 11.2927 21.5644L3.52471 13.7844C1.48871 11.7444 1.48871 8.4254 3.52471 6.3854C4.50871 5.4014 5.82071 4.8584 7.21971 4.8584C8.61871 4.8584 9.93171 5.4014 10.9147 6.3854L11.9997 7.4724L13.0847 6.3864C14.0687 5.4014 15.3807 4.8584 16.7807 4.8584C18.1787 4.8584 19.4917 5.4014 20.4747 6.3854C22.5117 8.4254 22.5117 11.7444 20.4757 13.7844L12.7077 21.5654C12.5197 21.7534 12.2657 21.8584 11.9997 21.8584Z" fill="#071435"/>
</mask>
<g mask="url(#mask0_3864_1451)">
<rect width="24" height="24" transform="translate(0 0.858398)" fill="#1551E5"/>
</g>
</svg>
